#!OML:ASF X:\für Bonn\!DataBase\2005_08_11_Bastian_Final\c3d\Bastian.ASF
:FULLY-SPECIFIED
:DEGREES
48
root -7.95924 16.6873 5.99323 535.936 36.8186 -170.73
lowerback 13.82 -0.157913 1.27651
upperback 16.4971 2.60928 -0.368336
thorax 10.2544 2.57228 -1.03263
lowerneck -11.7853 -14.4652 -28.6869
upperneck -2.63267 -17.5412 36.0483
head 8.08768 -7.34 15.3078
rclavicle -3.18055e-014 3.81667e-014
rhumerus -17.549 15.7148 -86.1549
rradius 58.6807
rwrist 6.86371
rhand -15.3628 5.4956
rfingers 7.12502
rthumb 10.8149 -24.206
lclavicle -3.18055e-014 3.81667e-014
lhumerus -30.1045 -18.3568 -267.972
lradius 11.8712
lwrist -344.709
lhand -12.668 -4.50898
lfingers 7.12502
lthumb 13.4132 25.0392
rfemur 13.6688 -7.40737 31.9742
rtibia 34.0526
rfoot -24.8503 -1.69133
rtoes -10.3136
lfemur -36.5033 -8.72696 -5.80968
ltibia 40.1852
lfoot 18.7672 -5.1109
ltoes -41.9749
49
root -7.88754 16.67 5.89467 536.24 36.9036 -170.666
lowerback 13.5035 -0.0799715 1.0463
upperback 16.4111 2.6534 -0.41032
thorax 10.3211 2.55227 -0.944475
lowerneck -11.9164 -14.4616 -28.5587
upperneck -2.52493 -17.5409 36.0355
head 8.12848 -7.32236 15.2774
rclavicle -5.12864e-014 3.49861e-014
rhumerus -17.3827 15.8782 -86.057
rradius 58.9167
rwrist 6.74755
rhand -15.1166 5.1727
rfingers 7.12502
rthumb 11.0522 -24.5163
lclavicle -5.12864e-014 3.49861e-014
lhumerus -30.6076 -18.1813 -267.673
lradius 12.0301
lwrist -343.965
lhand -12.8099 -4.63938
lfingers 7.12502
lthumb 13.2765 24.9178
rfemur 13.9653 -7.30162 31.9719
rtibia 33.8441
rfoot -24.9085 -1.53491
rtoes -10.3096
lfemur -36.4521 -8.7422 -5.64267
ltibia 39.7536
lfoot 18.7214 -5.76148
ltoes -42.5849
50
root -7.81643 16.6511 5.79529 536.578 36.9384 -170.6
lowerback 13.1889 -0.0150676 0.85815
upperback 16.3183 2.68482 -0.458876
thorax 10.3807 2.53103 -0.8864
lowerneck -12.0561 -14.4682 -28.3564
upperneck -2.41099 -17.5603 35.9679
head 8.16086 -7.31343 15.1992
rclavicle 1.03766e-013 -2.94201e-014
rhumerus -17.3215 16.0403 -85.9674
rradius 59.26
rwrist 6.59664
rhand -14.8824 4.85219
rfingers 7.12502
rthumb 11.2782 -24.8246
lclavicle 1.03766e-013 -2.94201e-014
lhumerus -31.0672 -18.0777 -267.379
lradius 12.1618
lwrist -343.224
lhand -12.929 -4.77333
lfingers 7.12502
lthumb 13.1616 24.7913
rfemur 14.2166 -7.14661 32.0176
rtibia 33.6389
rfoot -24.9188 -1.42338
rtoes -10.3022
lfemur -36.4919 -8.78157 -5.47393
ltibia 39.4309
lfoot 18.6388 -6.16518
ltoes -42.6389
51
root -7.74529 16.6323 5.69516 536.885 36.9866 -170.543
lowerback 12.9289 0.044366 0.672335
upperback 16.2415 2.71797 -0.501829
thorax 10.4295 2.51378 -0.824776
lowerneck -12.1627 -14.4674 -28.1962
upperneck -2.35784 -17.5591 35.93
head 8.17216 -7.29843 15.1478
rclavicle 3.97569e-015 8.74653e-015
rhumerus -17.3067 16.1666 -85.8638
rradius 59.6778
rwrist 6.5018
rhand -14.5832 4.55665
rfingers 7.12502
rthumb 11.5668 -25.1042
lclavicle 3.97569e-015 8.74653e-015
lhumerus -31.4833 -17.983 -267.078
lradius 12.281
lwrist -342.544
lhand -13.042 -4.92204
lfingers 7.12502
lthumb 13.0527 24.6495
rfemur 14.5068 -6.96024 32.0617
rtibia 33.4266
rfoot -24.8945 -1.36856
rtoes -10.3214
lfemur -36.5157 -8.76123 -5.34873
ltibia 39.2056
lfoot 18.478 -6.45992
ltoes -42.3295
52
root -7.67563 16.6148 5.59529 537.197 37.011 -170.482
lowerback 12.7472 0.0981163 0.526344
upperback 16.1507 2.74794 -0.543439
thorax 10.4191 2.49999 -0.787835
lowerneck -12.2144 -14.4771 -28.1079
upperneck -2.33327 -17.5784 35.9364
head 8.18788 -7.29918 15.1271
rclavicle -4.21423e-014 6.36111e-015
rhumerus -17.2745 16.2544 -85.8027
rradius 59.9937
rwrist 6.47252
rhand -14.3684 4.29113
rfingers 7.12502
rthumb 11.7739 -25.3579
lclavicle -4.21423e-014 6.36111e-015
lhumerus -31.8351 -17.6938 -266.895
lradius 12.3644
lwrist -342.162
lhand -13.0905 -5.09445
lfingers 7.12502
lthumb 13.006 24.4801
rfemur 14.733 -6.79082 32.1078
rtibia 33.3214
rfoot -24.9149 -1.3037
rtoes -10.4979
lfemur -36.597 -8.70425 -5.25664
ltibia 39.1473
lfoot 18.2377 -6.69037
ltoes -41.53
53
root -7.60715 16.5996 5.49432 537.521 37.0384 -170.428
lowerback 12.5865 0.144338 0.385174
upperback 16.0686 2.77236 -0.58597
thorax 10.4078 2.48561 -0.754611
lowerneck -12.2635 -14.4899 -28.0501
upperneck -2.33204 -17.5949 35.9601
head 8.20167 -7.29922 15.1205
rclavicle -5.08889e-014 5.56597e-014
rhumerus -17.1195 16.3181 -85.7236
rradius 60.1597
rwrist 6.50156
rhand -14.2129 4.14454
rfingers 7.12502
rthumb 11.9238 -25.4959
lclavicle -5.08889e-014 5.56597e-014
lhumerus -32.1487 -17.4356 -266.723
lradius 12.4622
lwrist -341.826
lhand -13.0781 -5.23551
lfingers 7.12502
lthumb 13.0179 24.3383
rfemur 14.9428 -6.63376 32.1204
rtibia 33.2156
rfoot -24.8724 -1.18795
rtoes -10.6575
lfemur -36.6962 -8.5993 -5.20188
ltibia 39.1778
lfoot 17.9285 -6.77502
ltoes -40.2623
54
root -7.54137 16.5643 5.39149 537.829 37.0314 -170.378
lowerback 12.4946 0.188493 0.260693
upperback 15.9822 2.79812 -0.62112
thorax 10.3531 2.47494 -0.725877
lowerneck -12.2165 -14.4957 -28.0504
upperneck -2.41001 -17.6037 36.0345
head 8.18754 -7.30575 15.1514
rclavicle 4.13472e-014 -2.54444e-014
rhumerus -16.9219 16.3122 -85.6624
rradius 60.1886
rwrist 6.63753
rhand -14.1228 4.09879
rfingers 7.12502
rthumb 12.0107 -25.5366
lclavicle 4.13472e-014 -2.54444e-014
lhumerus -32.4324 -17.1437 -266.589
lradius 12.5256
lwrist -341.63
lhand -13.0101 -5.42173
lfingers 7.12502
lthumb 13.0835 24.1479
rfemur 15.1457 -6.54101 32.1003
rtibia 33.1673
rfoot -24.8579 -1.0034
rtoes -10.8193
lfemur -36.8833 -8.40369 -5.22765
ltibia 39.3672
lfoot 17.5516 -6.9121
ltoes -38.8202
55
root -7.47432 16.554 5.29069 538.125 37.0183 -170.351
lowerback 12.4275 0.222387 0.115793
upperback 15.9134 2.81495 -0.652256
thorax 10.3046 2.45988 -0.68114
lowerneck -12.2083 -14.5238 -28.0497
upperneck -2.49025 -17.6328 36.0746
head 8.17953 -7.31936 15.1575
rclavicle 1.43125e-014 -7.95139e-016
rhumerus -16.6336 16.3538 -85.5802
rradius 60.128
rwrist 6.77116
rhand -14.155 4.07338
rfingers 7.12502
rthumb 11.9797 -25.5638
lclavicle 1.43125e-014 -7.95139e-016
lhumerus -32.6557 -16.6108 -266.585
lradius 12.6362
lwrist -341.767
lhand -12.898 -5.60402
lfingers 7.12502
lthumb 13.1915 23.9586
rfemur 15.3751 -6.45613 32.055
rtibia 32.995
rfoot -24.7288 -0.821786
rtoes -11.2386
lfemur -36.9426 -8.11216 -5.34445
ltibia 39.529
lfoot 17.0532 -7.12625
ltoes -37.536
56
root -7.40761 16.5453 5.19002 538.411 37.0033 -170.332
lowerback 12.3959 0.263809 -0.0240809
upperback 15.8388 2.84329 -0.687725
thorax 10.23 2.45212 -0.646067
lowerneck -12.1313 -14.5309 -28.065
upperneck -2.59128 -17.6449 36.1519
head 8.15627 -7.33147 15.1917
rclavicle -2.38542e-015 -3.49861e-014
rhumerus -16.3163 16.352 -85.5096
rradius 59.9584
rwrist 6.97808
rhand -14.2466 4.12228
rfingers 7.12502
rthumb 11.8914 -25.52
lclavicle -2.38542e-015 -3.49861e-014
lhumerus -32.8948 -16.143 -266.597
lradius 12.7569
lwrist -341.879
lhand -12.7316 -5.76375
lfingers 7.12502
lthumb 13.3519 23.7885
rfemur 15.5951 -6.41122 31.9779
rtibia 32.8624
rfoot -24.589 -0.579514
rtoes -11.699
lfemur -36.9825 -7.65279 -5.56628
ltibia 39.7959
lfoot 16.4097 -7.5459
ltoes -36.4811
57
root -7.33989 16.5598 5.0912 538.709 36.9681 -170.279
lowerback 12.4018 0.289262 -0.129849
upperback 15.7811 2.85726 -0.70761
thorax 10.1548 2.44257 -0.613259
lowerneck -12.0398 -14.5413 -28.1064
upperneck -2.75062 -17.6487 36.252
head 8.11736 -7.3414 15.2418
rclavicle 6.04305e-014 -2.94201e-014
rhumerus -15.9465 16.3285 -85.4256
rradius 59.761
rwrist 7.24472
rhand -14.331 4.16979
rfingers 7.12502
rthumb 11.8099 -25.4772
lclavicle 6.04305e-014 -2.94201e-014
lhumerus -33.0799 -15.5718 -266.674
lradius 12.8907
lwrist -342.127
lhand -12.5464 -5.92405
lfingers 7.12502
lthumb 13.5304 23.6164
rfemur 15.8449 -6.37098 31.9418
rtibia 32.6205
rfoot -24.346 -0.393829
rtoes -12.4423
lfemur -36.9071 -7.12378 -5.80567
ltibia 40.018
lfoot 15.668 -8.03194
ltoes -35.4504
58
root -7.27422 16.5536 4.99059 538.976 36.9453 -170.29
lowerback 12.4444 0.330113 -0.310711
upperback 15.7199 2.88868 -0.732157
thorax 10.053 2.43471 -0.546277
lowerneck -11.9856 -14.5636 -28.1125
upperneck -2.89626 -17.6659 36.3262
head 8.08507 -7.35381 15.2674
rclavicle -3.97569e-015 1.59028e-015
rhumerus -15.5303 16.3193 -85.3241
rradius 59.5045
rwrist 7.49975
rhand -14.4214 4.25436
rfingers 7.12502
rthumb 11.7228 -25.3976
lclavicle -3.97569e-015 1.59028e-015
lhumerus -33.256 -14.9181 -266.806
lradius 13.0034
lwrist -342.484
lhand -12.3969 -6.1556
lfingers 7.12502
lthumb 13.6745 23.3752
rfemur 16.0572 -6.36222 31.8187
rtibia 32.4648
rfoot -24.1421 -0.128975
rtoes -13.1294
lfemur -36.9302 -6.53158 -6.12737
ltibia 40.3615
lfoot 14.8506 -8.52792
ltoes -34.1266
59
root -7.20935 16.5463 4.88985 539.245 36.9209 -170.273
lowerback 12.5724 0.36938 -0.498602
upperback 15.6564 2.91885 -0.74773
thorax 9.89985 2.42691 -0.469822
lowerneck -12.0306 -14.608 -28.0488
upperneck -2.98765 -17.7093 36.373
head 8.08334 -7.36715 15.2568
rclavicle -1.59028e-015 6.36111e-015
rhumerus -15.1144 16.3067 -85.2431
rradius 59.2683
rwrist 7.69503
rhand -14.4773 4.32952
rfingers 7.12502
rthumb 11.6689 -25.3255
lclavicle -1.59028e-015 6.36111e-015
lhumerus -33.4471 -14.389 -266.895
lradius 13.1262
lwrist -342.686
lhand -12.2488 -6.36184
lfingers 7.12502
lthumb 13.8172 23.1593
rfemur 16.2694 -6.33912 31.7319
rtibia 32.3488
rfoot -23.95 0.0952694
rtoes -13.7258
lfemur -36.9421 -5.89136 -6.44652
ltibia 40.7545
lfoot 14.0487 -9.06807
ltoes -32.827
